<?xml version="1.0" encoding="UTF-8"?>
<svg version="1.1" xmlns="http://www.w3.org/2000/svg" width="1254" height="1254">
<path d="M0 0 C413.82 0 827.64 0 1254 0 C1254 413.82 1254 827.64 1254 1254 C840.18 1254 426.36 1254 0 1254 C0 840.18 0 426.36 0 0 Z " fill="#F9F9F9" transform="translate(0,0)"/>
<path d="M0 0 C1.89963938 -0.00596161 1.89963938 -0.00596161 3.83765531 -0.01204365 C7.31827511 -0.0225376 10.79863462 -0.01456275 14.27924275 -0.00329316 C18.04610197 0.00560599 21.81292921 -0.00291091 25.57978821 -0.00915527 C32.94428439 -0.01861112 40.30868212 -0.01207232 47.67317095 0.00010767 C56.25586897 0.01377071 64.83854389 0.01208611 73.42125002 0.00997434 C88.7357892 0.00678934 104.05028177 0.01842549 119.36480713 0.03804016 C134.2154075 0.05705555 149.06595327 0.06412362 163.91656494 0.05854797 C180.10575086 0.05248771 196.29491283 0.05267077 212.48409677 0.06403381 C214.21071386 0.06524105 215.93733096 0.06644704 217.66394806 0.06765175 C218.51339258 0.06825529 219.36283711 0.06885883 220.23802237 0.06948065 C226.21713314 0.073356 232.19623496 0.07296772 238.17534637 0.0710659 C245.46110354 0.06894206 252.74681296 0.07418276 260.03255668 0.08867946 C263.74799125 0.09591323 267.46335634 0.10000909 271.17879677 0.0954361 C275.20854036 0.09059691 279.23809435 0.10129235 283.26782227 0.11352539 C284.43863712 0.10974607 285.60945198 0.10596674 286.81574607 0.10207289 C300.87416274 0.17764817 312.55755716 4.34597352 322.7588501 14.1867218 C332.13828367 24.23466792 335.18426879 35.54299309 335.21588135 48.97969055 C335.22253815 49.98075333 335.22919495 50.9818161 335.23605347 52.01321411 C335.24613545 54.12352169 335.25087187 56.23386087 335.25054932 58.3441925 C335.25490747 61.53508988 335.29123435 64.72458549 335.3291626 67.91523743 C335.41763032 83.85571862 334.05960777 98.19053214 322.87994385 110.5929718 C317.51430615 115.7286536 311.76871883 118.71973285 304.87994385 121.3742218 C303.80744385 121.8073468 302.73494385 122.2404718 301.62994385 122.6867218 C298.87994385 123.3742218 298.87994385 123.3742218 291.87994385 123.3742218 C291.87994385 151.7542218 291.87994385 180.1342218 291.87994385 209.3742218 C301.77994385 209.3742218 311.67994385 209.3742218 321.87994385 209.3742218 C359.86672598 214.83088664 395.63640142 233.71212843 419.22369385 264.62812805 C427.60567285 276.0831527 435.02804052 288.00276978 439.7744751 301.4367218 C440.8108673 304.39541273 440.8108673 304.39541273 442.3526001 307.08125305 C444.45067537 311.60472479 445.43699036 316.20648882 446.50494385 321.0617218 C446.72150635 321.9917804 446.93806885 322.92183899 447.16119385 323.88008118 C449.98309241 336.44798127 450.02752436 348.96170051 450.02038574 361.78025818 C450.02297294 363.6461712 450.02598709 365.51208366 450.02938914 367.37799537 C450.03742046 372.48523781 450.03924654 377.59246617 450.03998661 382.69971418 C450.04184389 388.21592043 450.04939451 393.73211948 450.05612183 399.24832153 C450.06967729 411.30007914 450.07572528 423.3518334 450.08013248 435.40359735 C450.08289915 442.93385418 450.08713723 450.46410973 450.09163666 457.99436569 C450.10382478 478.85906191 450.11416092 499.72375745 450.11751175 520.58845711 C450.11773338 521.93609853 450.11795516 523.28373996 450.1181771 524.63138139 C450.11839774 525.98216879 450.11861822 527.33295619 450.11883855 528.6837436 C450.11928109 531.39339519 450.11972821 534.10304678 450.12017822 536.81269836 C450.12028761 537.48452745 450.120397 538.15635654 450.12050971 538.84854408 C450.12413951 560.62753931 450.14005933 582.40650124 450.16336859 604.18548372 C450.18799808 627.24037664 450.20167929 650.29525419 450.20287967 673.35016239 C450.20379514 685.90655204 450.20951549 698.46289806 450.22769928 711.01927567 C450.24312864 721.71095281 450.24820393 732.40257282 450.23996118 743.09425898 C450.23606498 748.54445169 450.23693389 753.99452944 450.25101852 759.44470787 C450.26381891 764.44383455 450.26250642 769.4427606 450.25042781 774.44188724 C450.24848142 776.24063963 450.25149969 778.03940654 450.26027218 779.8381386 C450.32667722 794.38685279 448.83313914 808.36354798 444.44244385 822.3117218 C444.22418945 823.02151184 444.00593506 823.73130188 443.78106689 824.46260071 C435.02063668 852.50495917 418.45249168 877.66861921 394.87994385 895.3742218 C394.08201416 895.97621399 393.28408447 896.57820618 392.4619751 897.19844055 C375.32776979 909.63681145 354.96960282 919.33427096 333.87994385 922.3742218 C332.26012997 922.63091204 332.26012997 922.63091204 330.60759258 922.89278793 C324.16679612 923.6848395 317.68093074 923.51914912 311.20240784 923.5146637 C309.70491704 923.51725032 308.20742692 923.5202643 306.70993775 923.5236671 C302.60697751 923.53170605 298.5040348 923.53352494 294.40106761 923.53426456 C289.97063092 923.53612064 285.5402032 923.54367095 281.10977173 923.55039978 C271.42526124 923.5639635 261.74075491 923.57000531 252.05623651 923.57441044 C246.00155758 923.57717726 239.94688023 923.58141552 233.89220238 923.58591461 C217.10836163 923.59810677 200.32452215 923.60840485 183.54067707 923.6117897 C182.46706274 923.61200927 181.3934484 923.61222884 180.2873003 923.61245506 C179.21119373 923.61267333 178.13508716 923.61289161 177.0263713 923.6131165 C174.84597035 923.61355996 172.6655694 923.61400652 170.48516846 923.61445618 C168.86285567 923.61478832 168.86285567 923.61478832 167.20776888 923.61512718 C149.70785815 923.61906981 132.20798919 923.63650773 114.70809457 923.6598157 C96.71455079 923.68358632 78.72102792 923.69599422 60.72746819 923.69715762 C50.63571058 923.6980714 40.54400734 923.70374799 30.45226479 923.72197723 C21.8532877 923.73745577 13.25438179 923.74245346 4.6553934 923.73423913 C0.27608132 923.73035932 -4.10308777 923.73112972 -8.48238182 923.74529648 C-50.45658204 923.8730683 -85.6854441 917.87139991 -118.12005615 889.3742218 C-119.02111084 888.61754211 -119.92216553 887.86086243 -120.8505249 887.08125305 C-132.23119842 877.2415452 -140.69604236 865.39570632 -148.12005615 852.3742218 C-148.48872803 851.7470929 -148.8573999 851.11996399 -149.23724365 850.47383118 C-155.23046638 840.22702924 -159.41835638 829.93998652 -162.33829886 818.42628181 C-162.90559575 816.21149702 -163.50063351 814.00375903 -164.11238426 811.80083859 C-167.05331194 800.79893481 -167.6916456 790.48041092 -167.63471985 779.13517761 C-167.6400577 777.25185833 -167.64713045 775.36854333 -167.6557669 773.48523629 C-167.67425765 768.35743685 -167.66813637 763.22992889 -167.65761387 758.10211802 C-167.65058284 752.55316115 -167.66664947 747.00426184 -167.67961121 741.45532227 C-167.70119319 730.60195905 -167.7011389 719.74870092 -167.69298566 708.89532332 C-167.68667064 700.06677779 -167.68783645 691.23826278 -167.69425774 682.40971756 C-167.69515939 681.15032143 -167.69606105 679.8909253 -167.69699002 678.59336565 C-167.69884135 676.03437454 -167.70070391 673.47538343 -167.70257758 670.91639234 C-167.71443791 653.74874624 -167.71886945 636.58111181 -167.70764256 619.4134655 C-167.7069856 618.40806824 -167.7069856 618.40806824 -167.70631537 617.38235992 C-167.70270919 611.9406631 -167.69887409 606.49896644 -167.69502444 601.05726979 C-167.68018714 579.84711748 -167.68894583 558.63709404 -167.71697998 537.42695618 C-167.74847978 513.54959556 -167.76328674 489.67231066 -167.75317997 465.79492199 C-167.7521575 463.24382155 -167.75116288 460.6927211 -167.75019646 458.14162064 C-167.74972007 456.88667341 -167.74924368 455.63172619 -167.74875285 454.33875027 C-167.74659613 445.53278905 -167.75635344 436.72688824 -167.77096748 427.9209404 C-167.78855868 417.17171126 -167.78827687 406.42265701 -167.76561583 395.67343454 C-167.7545337 390.19808953 -167.75117303 384.72305184 -167.76991653 379.24772072 C-167.90292826 337.32633014 -167.90292826 337.32633014 -162.12005615 318.3742218 C-161.6925931 316.84489076 -161.26852767 315.31460538 -160.84810734 313.78332329 C-154.47140027 290.65665818 -141.38169502 270.73014936 -125.12005615 253.3742218 C-124.22415771 252.41258118 -123.32825928 251.45094055 -122.4052124 250.4601593 C-105.59446607 232.81274382 -84.95058355 220.98810776 -61.62005615 214.1867218 C-60.76597168 213.93648254 -59.91188721 213.68624329 -59.03192139 213.42842102 C-41.5689296 208.51773277 -26.9552391 209.3742218 -8.12005615 209.3742218 C-8.12005615 180.9942218 -8.12005615 152.6142218 -8.12005615 123.3742218 C-11.75005615 123.0442218 -15.38005615 122.7142218 -19.12005615 122.3742218 C-30.70986202 119.81317856 -38.96910977 112.7988493 -45.54974365 103.15937805 C-46.32704834 101.78072571 -46.32704834 101.78072571 -47.12005615 100.3742218 C-47.4532486 99.78555328 -47.78644104 99.19688477 -48.12973022 98.59037781 C-51.53828612 91.87844341 -51.70277391 85.80872163 -51.65130615 78.37812805 C-51.65704651 76.53504311 -51.65704651 76.53504311 -51.66290283 74.65472412 C-51.66561397 72.06699297 -51.65830908 69.47923403 -51.64154053 66.89155579 C-51.62014027 62.95220703 -51.64136251 59.01468588 -51.66693115 55.07539368 C-51.66428738 52.55130115 -51.65916138 50.02720974 -51.65130615 47.50312805 C-51.65940308 46.33616898 -51.6675 45.1692099 -51.67584229 43.96688843 C-51.53983389 31.97854181 -47.39638535 21.82234833 -38.97943115 13.17500305 C-27.38894467 2.51096702 -15.63721348 -0.09924612 0 0 Z " fill="#59A492" transform="translate(480.12005615234375,175.6257781982422)"/>
<path d="M0 0 C1.25554701 -0.00311998 2.51109403 -0.00623996 3.80468792 -0.00945449 C7.27341871 -0.0177745 10.74203891 -0.01369 14.21077001 -0.00748205 C17.95790872 -0.00294714 21.70502873 -0.00994644 25.4521637 -0.01544189 C32.78610269 -0.02432619 40.1200007 -0.02241825 47.45394129 -0.01661661 C53.41479258 -0.01209668 59.3756324 -0.01148865 65.33648491 -0.01366425 C66.60988129 -0.01412394 66.60988129 -0.01412394 67.90900285 -0.01459293 C69.63366946 -0.01523239 71.35833607 -0.01588082 73.08300268 -0.01653811 C89.24754731 -0.02223849 105.41206924 -0.01568791 121.57661014 -0.00493738 C135.44341369 0.00399948 149.31018375 0.00244441 163.17698669 -0.0067749 C179.28592557 -0.0174799 195.39484457 -0.0216909 211.5037865 -0.01555037 C213.22174163 -0.01491329 214.93969677 -0.01428454 216.6576519 -0.01366425 C217.50288887 -0.01335569 218.34812583 -0.01304714 219.21897604 -0.01272924 C225.17246352 -0.01100311 231.12593838 -0.01391561 237.0794239 -0.01862335 C244.33492613 -0.02423466 251.59038509 -0.0227104 258.84588236 -0.01206186 C262.54699138 -0.00680877 266.24802827 -0.00474226 269.94913673 -0.01136017 C273.96192208 -0.01842685 277.97452558 -0.00998399 281.98730469 0 C283.15597897 -0.00446144 284.32465325 -0.00892289 285.5287419 -0.01351953 C291.2421506 0.01411223 296.03964837 0.33073919 301.43016052 2.25396729 C302.38277771 2.52595947 303.3353949 2.79795166 304.31687927 3.07818604 C320.40373787 8.03661804 333.69213889 17.5532875 343.43016052 31.25396729 C343.9638324 31.98873291 344.49750427 32.72349854 345.04734802 33.48052979 C355.92284075 49.87829343 356.31810817 67.33526272 356.19984949 86.3722986 C356.18401805 89.99407231 356.20321491 93.61570087 356.21765137 97.23745728 C356.24032687 104.30746882 356.2310954 111.3770818 356.2101505 118.44708485 C356.19378375 124.19882659 356.18968706 129.95046047 356.19411659 135.70222282 C356.19474727 136.52470873 356.19537794 137.34719463 356.19602773 138.19460435 C356.19737395 139.86610233 356.19875353 141.53760029 356.20016608 143.20909821 C356.21206697 158.83613475 356.18812907 174.46295417 356.151148 190.08994132 C356.12025467 203.46459901 356.11789105 216.8390072 356.13694763 230.21368408 C356.1591175 245.79105863 356.16515211 261.3682937 356.14462501 276.94567531 C356.14246234 278.6102927 356.14031324 280.27491009 356.13817787 281.93952751 C356.13711151 282.7582946 356.13604514 283.57706168 356.13494646 284.42063989 C356.12850858 290.15816929 356.1332079 295.89562626 356.14220238 301.6331501 C356.15279655 308.63569798 356.14505131 315.63795448 356.11474659 322.64044899 C356.09973806 326.20527268 356.09229533 329.76963871 356.10693741 333.33447456 C356.19860498 358.04667846 353.11762281 379.50023954 335.43016052 398.25396729 C329.78736129 403.76768288 323.65766116 407.96040519 316.68016052 411.56646729 C316.08590271 411.87987061 315.4916449 412.19327393 314.87937927 412.51617432 C299.1826451 420.18021128 283.33270454 419.82980652 266.23389983 419.74754786 C262.54883324 419.73425881 258.8638152 419.74431972 255.17874146 419.75131226 C247.98005457 419.76134122 240.78155299 419.75018361 233.58288917 419.73161165 C225.18764655 419.71073885 216.7924429 419.71098677 208.39717922 419.71195681 C193.41383073 419.71295572 178.43056794 419.69469642 163.44725037 419.66558838 C148.92867981 419.63739808 134.41018461 419.62324791 119.8915863 419.62457275 C118.54923724 419.62469262 118.54923724 419.62469262 117.17977002 419.62481491 C116.28637157 419.62489562 115.39297312 419.62497633 114.47250199 419.62505949 C97.9086618 419.62644106 81.34485343 419.61465094 64.78102358 419.59675305 C58.93704029 419.59073575 53.09306288 419.58859579 47.24907684 419.58768845 C40.1248694 419.58632057 33.00071565 419.57734083 25.87653098 419.55902283 C22.2457676 419.54982535 18.61507261 419.54368158 14.9842968 419.54621124 C11.04116954 419.54882525 7.0981786 419.5358465 3.15507507 419.52139282 C2.01839079 419.52449003 0.88170651 419.52758723 -0.28942275 419.53077829 C-20.30767337 419.40991588 -37.49274994 412.55632098 -52.15577698 398.82427979 C-67.9970372 381.95769528 -73.72864017 361.26147697 -73.71028137 338.65582275 C-73.71325249 337.50463109 -73.71622362 336.35343943 -73.71928477 335.16736317 C-73.72794057 331.31861962 -73.72947739 327.46990729 -73.73097229 323.62115479 C-73.73506753 320.85779132 -73.74060749 318.0944311 -73.74601746 315.33106995 C-73.7595653 307.82864414 -73.76562012 300.32622369 -73.77002811 292.82378769 C-73.77279689 288.13267657 -73.77703541 283.4415675 -73.78153229 278.75045776 C-73.79372096 265.74365875 -73.80402065 252.73686136 -73.80740738 239.73005676 C-73.80762695 238.89852874 -73.80784651 238.06700072 -73.80807273 237.21027488 C-73.80829101 236.37683674 -73.80850929 235.54339861 -73.80873418 234.68470478 C-73.80917763 232.99604098 -73.8096242 231.30737718 -73.81007385 229.61871338 C-73.81029528 228.78109038 -73.81051671 227.94346738 -73.81074485 227.08046186 C-73.81468906 213.52174885 -73.83213337 199.96308971 -73.85543337 186.40439749 C-73.87920178 172.4597118 -73.89161174 158.51505309 -73.8927753 144.57034683 C-73.89368905 136.75072544 -73.89936519 128.93117422 -73.91759491 121.11157227 C-73.93307028 114.45030002 -73.9380729 107.78911965 -73.92985681 101.12783283 C-73.9259762 97.73538793 -73.92841654 94.3432765 -73.94091415 90.95083046 C-74.03433786 63.99755409 -71.05354693 41.28302231 -52.19483948 20.65631104 C-37.94279042 6.99028373 -19.53465213 -0.07471664 0 0 Z " fill="#DEEDE7" transform="translate(480.56983947753906,557.7460327148438)"/>
<path d="M0 0 C0.70949799 -0.00817749 1.41899597 -0.01635498 2.1499939 -0.02478027 C4.49224014 -0.04954135 6.83442613 -0.06612694 9.17675781 -0.08056641 C9.97951393 -0.08589008 10.78227005 -0.09121376 11.60935211 -0.09669876 C15.85902449 -0.12339089 20.1086679 -0.14277772 24.35839844 -0.15722656 C27.86582561 -0.17055846 31.37266999 -0.19840216 34.87988281 -0.23925781 C39.12505613 -0.28870111 43.36970153 -0.31336153 47.61515045 -0.32045364 C49.22742735 -0.32714515 50.83969344 -0.34231234 52.45180511 -0.36634445 C68.80679458 -0.59623151 68.80679458 -0.59623151 74.87988281 5.19287109 C77.19238281 7.69287109 77.19238281 7.69287109 78.87988281 10.19287109 C79.66405327 11.26579659 79.66405327 11.26579659 80.46406555 12.36039734 C82.26187517 15.95708223 82.27922948 19.08528126 82.22045898 23.01245117 C82.22089706 23.78371338 82.22133514 24.55497559 82.2217865 25.34960938 C82.21970397 27.88746858 82.19639879 30.42465918 82.17285156 32.96240234 C82.16725369 34.72645202 82.16298449 36.49050637 82.1599884 38.25456238 C82.14855468 42.88903769 82.11910021 47.52322927 82.08587646 52.15759277 C82.05514381 56.8900163 82.04147624 61.62248584 82.02636719 66.35498047 C81.99422907 75.63440175 81.94305054 84.91361279 81.87988281 94.19287109 C83.18747559 94.18287834 83.18747559 94.18287834 84.52148438 94.17268372 C92.76000334 94.11242788 100.99844767 94.06682331 109.23713684 94.03743458 C113.47215216 94.0218173 117.7069845 94.00065156 121.94189453 93.96655273 C126.03326197 93.93381803 130.12445403 93.91598849 134.21594238 93.90823936 C135.77236692 93.90272107 137.3287825 93.89194541 138.88513184 93.87568092 C149.46973434 93.76952484 158.42109925 94.02129373 166.87988281 101.19287109 C174.60447193 109.80274582 173.65985287 119.49410163 173.46582031 130.32568359 C173.45461205 132.17225762 173.44607957 134.01884965 173.44009399 135.865448 C173.41732376 140.6958655 173.3585044 145.52517862 173.29187012 150.35516357 C173.23019095 155.29570583 173.20302454 160.23642875 173.17285156 165.17724609 C173.10874802 174.84960295 173.00651392 184.52114473 172.87988281 194.19287109 C172.21988281 194.19287109 171.55988281 194.19287109 170.87988281 194.19287109 C171.00363281 194.87349609 171.12738281 195.55412109 171.25488281 196.25537109 C170.68003278 200.75836298 168.20729336 203.23126467 164.87988281 206.19287109 C158.45128171 210.36582269 152.49592947 211.32010721 144.88647461 211.30639648 C143.8612545 211.30661552 143.8612545 211.30661552 142.81532288 211.30683899 C140.5698828 211.30614571 138.32452704 211.29838084 136.07910156 211.29052734 C134.51683091 211.28866109 132.95455966 211.28723816 131.39228821 211.28623962 C127.29058197 211.28243081 123.18891142 211.27261456 119.08721924 211.26153564 C114.8976693 211.25128629 110.70811356 211.24673446 106.51855469 211.24169922 C98.30564773 211.23099077 90.09276972 211.21393406 81.87988281 211.19287109 C81.88987556 212.72596924 81.88987556 212.72596924 81.90007019 214.29003906 C81.96099337 223.94130355 82.00590919 233.59252881 82.03531933 243.24394226 C82.05094788 248.20535319 82.07213473 253.16660838 82.10620117 258.12792969 C82.13889495 262.91955081 82.15675695 267.71102249 82.16451454 272.50274658 C82.17004009 274.32711132 82.18083008 276.15146825 82.19707298 277.97576904 C82.21898064 280.53919895 82.22184421 283.10201827 82.22045898 285.66552734 C82.23124481 286.41287643 82.24203064 287.16022552 82.25314331 287.93022156 C82.21279415 294.87072 80.35861764 301.13434712 75.75488281 306.50537109 C75.23667969 307.14087891 74.71847656 307.77638672 74.18457031 308.43115234 C66.43379098 314.35590062 56.69045671 313.63595992 47.40722656 313.59130859 C45.9146765 313.59333387 44.4221274 313.59624906 42.92958069 313.6000061 C39.81550591 313.60440681 36.70169086 313.59807085 33.58764648 313.58398438 C29.61452826 313.56687861 25.64201756 313.57675641 21.66892147 313.59470177 C18.59151199 313.60558823 15.51424448 313.60207137 12.43683052 313.59431839 C10.97253915 313.59233056 9.5082345 313.59472532 8.04395866 313.60175705 C-9.73579786 313.66843407 -9.73579786 313.66843407 -16.87011719 307.50537109 C-17.40121094 307.06837891 -17.93230469 306.63138672 -18.47949219 306.18115234 C-23.23559814 300.41720489 -24.71213039 294.82819135 -24.57421875 287.48193359 C-24.57480286 286.65171188 -24.57538696 285.82149017 -24.57598877 284.96611023 C-24.57322455 282.24959 -24.54221274 279.5341972 -24.51074219 276.81787109 C-24.50327385 274.92359008 -24.49758372 273.02930129 -24.49359131 271.13500977 C-24.47838161 266.17004748 -24.43914033 261.20555964 -24.39477539 256.24078369 C-24.35372171 251.16628435 -24.33555879 246.0917077 -24.31542969 241.01708984 C-24.27264128 231.07547613 -24.20444688 221.1342132 -24.12011719 211.19287109 C-25.44317116 211.20286385 -25.44317116 211.20286385 -26.79295349 211.21305847 C-35.13417433 211.27334675 -43.47532124 211.31893523 -51.81671047 211.34830761 C-56.10438321 211.36391626 -60.39187483 211.38506598 -64.67944336 211.41918945 C-68.82268601 211.45195526 -72.96575522 211.46976016 -77.10911751 211.47750282 C-78.68425282 211.48301559 -80.25937941 211.49378022 -81.83444023 211.51006126 C-92.67958839 211.61763443 -101.85371778 211.43067208 -110.51464844 204.18115234 C-115.11973941 198.47801048 -116.71764933 192.94244584 -116.66943359 185.71655273 C-116.67965546 184.91054123 -116.68987732 184.10452972 -116.70040894 183.27409363 C-116.7280059 180.63342852 -116.7263032 177.99381871 -116.72167969 175.35302734 C-116.72946386 173.50271727 -116.7381353 171.65241074 -116.74765015 169.80210876 C-116.76253209 165.93297719 -116.762023 162.06421075 -116.75146484 158.19506836 C-116.73987449 153.25422193 -116.773756 148.31487481 -116.82015419 143.37427616 C-116.84971818 139.55561187 -116.85136053 135.73730515 -116.84513474 131.91854668 C-116.84615651 130.09779323 -116.85654454 128.27701855 -116.87675858 126.45637703 C-117.04364347 109.3261141 -117.04364347 109.3261141 -111.74887085 102.78147888 C-105.19456504 96.38872502 -99.01568756 93.93371687 -89.73779297 93.96582031 C-89.02490616 93.96552826 -88.31201935 93.96523621 -87.57752991 93.9649353 C-85.24003586 93.96631971 -82.90286749 93.98183849 -80.56542969 93.99755859 C-78.93732884 94.00129189 -77.30922573 94.00413737 -75.68112183 94.00613403 C-71.41005171 94.01374554 -67.13911908 94.03337253 -62.86810303 94.05554199 C-58.50420999 94.07605407 -54.1402946 94.08514719 -49.77636719 94.09521484 C-41.22422099 94.11662091 -32.67218622 94.15072667 -24.12011719 94.19287109 C-24.13010994 92.81344078 -24.13010994 92.81344078 -24.14030457 91.40614319 C-24.20057969 82.7117335 -24.24617473 74.01739466 -24.2755537 65.32282352 C-24.29116582 60.85355225 -24.31232208 56.38445459 -24.34643555 51.9152832 C-24.37918871 47.5969772 -24.39700365 43.2788375 -24.40474892 38.96041679 C-24.41026392 37.31829653 -24.421033 35.67618469 -24.43730736 34.03413582 C-24.62347519 14.46004514 -24.62347519 14.46004514 -18.74511719 6.81787109 C-12.88380206 0.95655596 -8.06379178 0.08091799 0 0 Z " fill="#FEFDFD" transform="translate(594.1201171875,611.80712890625)"/>
<path d="M0 0 C1.26642625 -0.00397441 2.5328525 -0.00794881 3.83765531 -0.01204365 C7.31827511 -0.0225376 10.79863462 -0.01456275 14.27924275 -0.00329316 C18.04610197 0.00560599 21.81292921 -0.00291091 25.57978821 -0.00915527 C32.94428439 -0.01861112 40.30868212 -0.01207232 47.67317095 0.00010767 C56.25586897 0.01377071 64.83854389 0.01208611 73.42125002 0.00997434 C88.7357892 0.00678934 104.05028177 0.01842549 119.36480713 0.03804016 C134.2154075 0.05705555 149.06595327 0.06412362 163.91656494 0.05854797 C180.10575086 0.05248771 196.29491283 0.05267077 212.48409677 0.06403381 C214.21071386 0.06524105 215.93733096 0.06644704 217.66394806 0.06765175 C218.51339258 0.06825529 219.36283711 0.06885883 220.23802237 0.06948065 C226.21713314 0.073356 232.19623496 0.07296772 238.17534637 0.0710659 C245.46110354 0.06894206 252.74681296 0.07418276 260.03255668 0.08867946 C263.74799125 0.09591323 267.46335634 0.10000909 271.17879677 0.0954361 C275.20854036 0.09059691 279.23809435 0.10129235 283.26782227 0.11352539 C284.43863712 0.10974607 285.60945198 0.10596674 286.81574607 0.10207289 C300.18590492 0.17394823 310.52518016 3.90983731 320.87994385 12.3742218 C319.87994385 14.3742218 319.87994385 14.3742218 317.12994385 15.6867218 C313.67233362 17.48201942 311.50077513 19.5221407 308.87994385 22.3742218 C309.9802456 24.84990075 311.12102638 26.66050731 312.87994385 28.7492218 C317.36468987 34.63545096 317.19953146 40.79547343 317.21588135 47.8898468 C317.22253815 48.90085449 317.22919495 49.91186218 317.23605347 50.95350647 C317.24615476 53.08835539 317.25087127 55.22323573 317.25054932 57.35810852 C317.25491085 60.59969566 317.29122619 63.8399075 317.3291626 67.08125305 C317.33503384 69.16327969 317.33900117 71.24531274 317.34088135 73.3273468 C317.35525238 74.28497925 317.36962341 75.24261169 317.38442993 76.22926331 C317.33152086 84.14726643 315.40809974 91.31333836 310.62994385 97.7492218 C306.69085125 101.50926473 302.44057236 104.3742218 296.87994385 104.3742218 C296.87994385 105.0342218 296.87994385 105.6942218 296.87994385 106.3742218 C257.23513166 106.44286678 217.59032722 106.49573984 177.94546749 106.52741779 C173.26656238 106.53116998 168.58765738 106.53505294 163.90875244 106.53901672 C162.51150552 106.54019712 162.51150552 106.54019712 161.08603139 106.54140136 C145.99719385 106.55446042 130.90839055 106.57811701 115.81957333 106.60568019 C100.34063663 106.63372049 84.86171788 106.65039515 69.38275683 106.65648729 C59.8290174 106.66060658 50.27537474 106.67362382 40.7216651 106.6979712 C34.1730917 106.71381141 27.62456843 106.71862605 21.07597725 106.71472593 C17.29602016 106.71280171 13.51623234 106.71578135 9.73630524 106.73183823 C5.63949147 106.74911429 1.54303933 106.74319468 -2.55380249 106.73498535 C-3.75030131 106.74372388 -4.94680013 106.7524624 -6.17955649 106.76146573 C-13.15492561 106.723546 -17.722338 106.09239632 -23.30755615 101.6242218 C-23.90568115 101.2117218 -24.50380615 100.7992218 -25.12005615 100.3742218 C-28.87513439 101.62591455 -30.36064136 103.55063457 -33.12005615 106.3742218 C-35.08678952 108.08583645 -37.09751512 109.72796747 -39.12005615 111.3742218 C-40.19782277 110.11630975 -41.25617125 108.8417661 -42.30755615 107.5617218 C-42.89923584 106.85402649 -43.49091553 106.14633118 -44.1005249 105.41719055 C-50.02280899 96.49367159 -51.87073701 88.82493565 -51.7489624 78.18281555 C-51.75137436 76.95692215 -51.75378632 75.73102875 -51.75627136 74.46798706 C-51.75529748 71.89218389 -51.74201482 69.31635857 -51.71697998 66.74067688 C-51.68261964 62.8189677 -51.6963628 58.89950956 -51.71575928 54.97773743 C-51.70886107 52.46275397 -51.69918892 49.94777627 -51.6864624 47.43281555 C-51.69142227 46.27213058 -51.69638214 45.11144562 -51.70149231 43.91558838 C-51.53010989 31.95799983 -47.37482624 21.8001991 -38.97943115 13.17500305 C-27.38894467 2.51096702 -15.63721348 -0.09924612 0 0 Z " fill="#8BC3B7" transform="translate(480.12005615234375,175.6257781982422)"/>
<path d="M0 0 C82.17 0 164.34 0 249 0 C249 94.67647059 249 94.67647059 242.0078125 102.12109375 C241.38648438 102.55550781 240.76515625 102.98992187 240.125 103.4375 C239.50882813 103.88996094 238.89265625 104.34242188 238.2578125 104.80859375 C232.3950245 107.90227946 226.76553401 108.29183839 220.27760315 108.26069641 C218.99690481 108.26643473 218.99690481 108.26643473 217.69033378 108.27228898 C214.84240191 108.28257026 211.99467348 108.27863612 209.14672852 108.2746582 C207.09958714 108.27900735 205.05244739 108.28419117 203.00531006 108.29014587 C197.45369321 108.30352467 191.90214448 108.30411582 186.35051465 108.30158257 C181.7132894 108.3005122 177.07607789 108.30539789 172.43885559 108.310188 C161.4982077 108.32127911 150.55759415 108.32172267 139.61694336 108.31567383 C128.33512038 108.30963224 117.05342205 108.32195072 105.77162033 108.3432439 C96.07970655 108.36086285 86.38783245 108.36686082 76.69590324 108.36360615 C70.90984484 108.36179378 65.12387538 108.36442513 59.3378315 108.37832069 C53.89672506 108.39089927 48.45581294 108.38895452 43.01470947 108.37590981 C41.02010469 108.37354463 39.02548623 108.37627658 37.03089714 108.38453293 C34.30350013 108.39500692 31.57675438 108.38689448 28.84938049 108.3742218 C27.67168456 108.38528323 27.67168456 108.38528323 26.47019678 108.39656812 C19.43925053 108.32806353 13.13834834 106.57824507 7.75 101.8125 C7.12609375 101.28269531 6.5021875 100.75289063 5.859375 100.20703125 C-15.69859695 74.61826202 0 33.45939726 0 0 Z " fill="#DCECE5" transform="translate(497,299)"/>
<path d="M0 0 C8.25 0 16.5 0 25 0 C25.00410889 2.67923584 25.00821777 5.35847168 25.01245117 8.11889648 C25.02968331 16.99185841 25.07424293 25.86453359 25.13209057 34.73731899 C25.16631541 40.11456773 25.19146358 45.4915337 25.19555664 50.86889648 C25.19984919 56.06278457 25.22839164 61.25603527 25.27343178 66.4497242 C25.28637615 68.42671045 25.29072536 70.40377309 25.28615379 72.38079643 C25.02155331 87.9063815 25.02155331 87.9063815 32.75505066 100.84739685 C38.75889107 106.7406216 45.68158833 107.29929332 53.71566772 107.26069641 C54.99530771 107.26643473 54.99530771 107.26643473 56.30079901 107.27228898 C59.14639696 107.28257026 61.9917913 107.27863611 64.83740234 107.2746582 C66.8829212 107.27900738 68.92843843 107.28419122 70.97395325 107.29014587 C76.52150516 107.30352516 82.06898889 107.30411571 87.61655378 107.30158257 C92.25119945 107.30051211 96.88583136 107.30539819 101.52047408 107.310188 C112.4563682 107.32127955 123.39222797 107.3217226 134.328125 107.31567383 C145.60197562 107.30963392 156.87570144 107.32194636 168.14953077 107.3432439 C177.83636468 107.36086914 187.52315891 107.36685978 197.21000826 107.36360615 C202.99218618 107.36179459 208.77427508 107.36441695 214.55643845 107.37832069 C219.99508566 107.3909093 225.43353856 107.38894503 230.87218285 107.37590981 C232.86475503 107.37354672 234.85734094 107.37626909 236.84989738 107.38453293 C239.57694389 107.39502477 242.30334132 107.38688021 245.03036499 107.3742218 C246.20369166 107.38528323 246.20369166 107.38528323 247.40072191 107.39656812 C254.06383561 107.33182172 259.99429672 105.77609739 265.75 102.375 C272.07677879 95.69673349 274.14156779 88.57687166 274.20532227 79.58129883 C274.21522186 78.72254654 274.22512146 77.86379425 274.23532104 76.97901917 C274.26692766 74.13838465 274.29169021 71.2977334 274.31640625 68.45703125 C274.3369765 66.48833276 274.35797299 64.51963868 274.37937927 62.5509491 C274.43459262 57.36751882 274.48400518 52.18404873 274.53222656 47.00054932 C274.58244694 41.71191868 274.63813021 36.42334591 274.69335938 31.13476562 C274.80093196 20.75655799 274.90187421 10.37830125 275 0 C282.92 0 290.84 0 299 0 C299.11321993 12.58761743 299.20484265 25.17489349 299.25906086 37.76290607 C299.28509043 43.60881367 299.32036738 49.45435308 299.37719727 55.30004883 C299.43175342 60.94757363 299.46147042 66.59474556 299.47438622 72.24251366 C299.48358377 74.39098854 299.50154415 76.53944536 299.52865028 78.68776894 C299.74011183 96.15099593 297.22387681 107.0945314 285.0078125 120.125 C275.00625419 129.7968366 263.57023014 133.14576437 250.02062988 133.15390015 C249.12699974 133.1582824 248.23336959 133.16266465 247.31265974 133.1671797 C244.32367199 133.18051464 241.33471369 133.18673463 238.34570312 133.19287109 C236.20007191 133.20077631 234.054442 133.20904552 231.90881348 133.21765137 C224.86630515 133.24382515 217.82379102 133.25917539 210.78125 133.2734375 C208.35277808 133.27879928 205.9243062 133.28417679 203.49583435 133.28956985 C193.39031743 133.31119265 183.28480207 133.32992745 173.17926788 133.34119225 C158.71899283 133.35741983 144.25898695 133.39057598 129.79881334 133.44759309 C119.6193646 133.48635625 109.43998765 133.50583256 99.26046705 133.51111281 C93.18683292 133.51475775 87.11348618 133.52668821 81.03993225 133.55921555 C75.32051083 133.58940782 69.60154905 133.59556809 63.88206482 133.58383179 C61.79159833 133.58361198 59.7011098 133.59183932 57.61071777 133.60948563 C41.55877565 133.73753203 28.36863121 132.35033024 16 121 C15.09894531 120.28650391 15.09894531 120.28650391 14.1796875 119.55859375 C9.76335007 115.76608874 7.24329635 111.17536134 4.625 106.0625 C4.27880615 105.39420166 3.9326123 104.72590332 3.57592773 104.03735352 C3.25438721 103.37662842 2.93284668 102.71590332 2.6015625 102.03515625 C2.17351318 101.15935913 2.17351318 101.15935913 1.73681641 100.26586914 C-0.29073389 94.0307153 -0.14223003 87.31949848 -0.11352539 80.83007812 C-0.11367142 79.95108856 -0.11381744 79.072099 -0.1139679 78.16647339 C-0.11327641 75.28803967 -0.10552009 72.40967229 -0.09765625 69.53125 C-0.09578935 67.52486201 -0.09436673 65.51847357 -0.09336853 63.51208496 C-0.08956476 58.25141118 -0.07975288 52.99076534 -0.06866455 47.73010254 C-0.05840428 42.35392637 -0.05386105 36.97774565 -0.04882812 31.6015625 C-0.03812857 21.06769413 -0.02054923 10.53385377 0 0 Z " fill="#388E77" transform="translate(472,299)"/>
<path d="M0 0 C1.26642625 -0.00397441 2.5328525 -0.00794881 3.83765531 -0.01204365 C7.31827511 -0.0225376 10.79863462 -0.01456275 14.27924275 -0.00329316 C18.04610197 0.00560599 21.81292921 -0.00291091 25.57978821 -0.00915527 C32.94428439 -0.01861112 40.30868212 -0.01207232 47.67317095 0.00010767 C56.25586897 0.01377071 64.83854389 0.01208611 73.42125002 0.00997434 C88.7357892 0.00678934 104.05028177 0.01842549 119.36480713 0.03804016 C134.2154075 0.05705555 149.06595327 0.06412362 163.91656494 0.05854797 C180.10575086 0.05248771 196.29491283 0.05267077 212.48409677 0.06403381 C214.21071386 0.06524105 215.93733096 0.06644704 217.66394806 0.06765175 C218.51339258 0.06825529 219.36283711 0.06885883 220.23802237 0.06948065 C226.21713314 0.073356 232.19623496 0.07296772 238.17534637 0.0710659 C245.46110354 0.06894206 252.74681296 0.07418276 260.03255668 0.08867946 C263.74799125 0.09591323 267.46335634 0.10000909 271.17879677 0.0954361 C275.20854036 0.09059691 279.23809435 0.10129235 283.26782227 0.11352539 C284.43863712 0.10974607 285.60945198 0.10596674 286.81574607 0.10207289 C300.18590492 0.17394823 310.52518016 3.90983731 320.87994385 12.3742218 C319.87994385 14.3742218 319.87994385 14.3742218 317.19244385 15.5617218 C313.04842259 17.82920513 310.76012492 20.71921099 307.87994385 24.3742218 C307.16582893 24.02057228 306.45171401 23.66692275 305.71595925 23.30255657 C297.8331384 19.6725024 291.38369179 18.65820246 282.76661682 18.74603271 C280.86803579 18.73539113 280.86803579 18.73539113 278.93109959 18.72453457 C275.45225753 18.70576182 271.97412703 18.71775964 268.49530399 18.73525751 C264.73044523 18.74870918 260.96568531 18.73316686 257.20083618 18.72143555 C249.83995862 18.70311397 242.47934756 18.7115337 235.11847845 18.72952377 C229.13484109 18.74358041 223.15127581 18.74743601 217.16762352 18.7440815 C216.31426128 18.74360405 215.46089904 18.74312661 214.58167734 18.7426347 C212.84783432 18.74160832 211.11399131 18.74055296 209.38014831 18.73946894 C194.07004978 18.73091338 178.76007952 18.74754137 163.45001221 18.77729797 C148.60620744 18.80614779 133.76258733 18.81321025 118.91876221 18.79780579 C102.73577286 18.78103447 86.55287106 18.77701772 70.36987942 18.79451615 C68.64352525 18.79636046 66.91717107 18.79819518 65.19081688 18.80002022 C63.91686116 18.80138835 63.91686116 18.80138835 62.61716897 18.80278413 C56.64152138 18.80838257 50.66591664 18.80508895 44.69027138 18.79847527 C37.40705235 18.79073399 30.12401489 18.79752366 22.84083239 18.82265031 C19.12722978 18.83512525 15.41390958 18.84131633 11.7002964 18.83010864 C7.67071012 18.81817712 3.64186271 18.83736429 -0.38768005 18.85955811 C-1.55558207 18.85131734 -2.72348408 18.84307657 -3.92677706 18.83458608 C-10.17245698 18.89807037 -14.84123512 19.59255233 -20.40361625 22.51731545 C-22.12005615 23.3742218 -22.12005615 23.3742218 -24.12005615 23.3742218 C-24.45005615 24.3642218 -24.78005615 25.3542218 -25.12005615 26.3742218 C-25.7542749 26.99554993 -26.38849365 27.61687805 -27.04193115 28.2570343 C-31.26552854 32.56002261 -32.95597382 38.52027252 -33.29754639 44.46138 C-33.27893555 45.54250061 -33.26032471 46.62362122 -33.2411499 47.73750305 C-33.22455322 48.96275696 -33.20795654 50.18801086 -33.19085693 51.45039368 C-33.15581055 53.3926886 -33.15581055 53.3926886 -33.12005615 55.3742218 C-33.1099945 57.37771837 -33.09995032 59.38121549 -33.09158325 61.38471985 C-33.07210503 64.1262692 -33.02216624 66.86681588 -32.96746826 69.60786438 C-32.94404525 71.00259802 -32.9298366 72.3975146 -32.92449951 73.79243469 C-32.885357 82.4228568 -32.37799263 89.24041491 -27.12005615 96.3742218 C-26.46005615 97.3642218 -25.80005615 98.3542218 -25.12005615 99.3742218 C-29.73539834 103.43900287 -34.37591428 107.46030475 -39.12005615 111.3742218 C-40.19782277 110.11630975 -41.25617125 108.8417661 -42.30755615 107.5617218 C-42.89923584 106.85402649 -43.49091553 106.14633118 -44.1005249 105.41719055 C-50.02280899 96.49367159 -51.87073701 88.82493565 -51.7489624 78.18281555 C-51.75137436 76.95692215 -51.75378632 75.73102875 -51.75627136 74.46798706 C-51.75529748 71.89218389 -51.74201482 69.31635857 -51.71697998 66.74067688 C-51.68261964 62.8189677 -51.6963628 58.89950956 -51.71575928 54.97773743 C-51.70886107 52.46275397 -51.69918892 49.94777627 -51.6864624 47.43281555 C-51.69142227 46.27213058 -51.69638214 45.11144562 -51.70149231 43.91558838 C-51.53010989 31.95799983 -47.37482624 21.8001991 -38.97943115 13.17500305 C-27.38894467 2.51096702 -15.63721348 -0.09924612 0 0 Z " fill="#78BBAB" transform="translate(480.12005615234375,175.6257781982422)"/>
<path d="M0 0 C7.15366281 4.69115196 10.87093563 14.10180402 12.66918945 22.13803101 C13.89214458 29.54884635 13.61342023 37.19266515 13.55273438 44.67919922 C13.53129124 47.82597923 13.55261776 50.97047673 13.578125 54.1171875 C13.60023539 69.92877554 12.10574627 84.26501195 1.03125 96.55078125 C-4.3343877 101.68646305 -10.07997502 104.67754229 -16.96875 107.33203125 C-18.04125 107.76515625 -19.11375 108.19828125 -20.21875 108.64453125 C-22.96875 109.33203125 -22.96875 109.33203125 -29.96875 109.33203125 C-29.96875 140.35203125 -29.96875 171.37203125 -29.96875 203.33203125 C-30.29875 203.33203125 -30.62875 203.33203125 -30.96875 203.33203125 C-30.96875 172.31203125 -30.96875 141.29203125 -30.96875 109.33203125 C-38.88875 109.33203125 -46.80875 109.33203125 -54.96875 109.33203125 C-54.96875 138.37203125 -54.96875 167.41203125 -54.96875 197.33203125 C-55.29875 197.33203125 -55.62875 197.33203125 -55.96875 197.33203125 C-55.96875 168.29203125 -55.96875 139.25203125 -55.96875 109.33203125 C-68.58182373 109.36345215 -68.58182373 109.36345215 -81.44970703 109.39550781 C-108.38807599 109.4597767 -135.32644529 109.50423065 -162.26487107 109.53629257 C-166.45278533 109.54129509 -170.64069936 109.54647241 -174.82861328 109.55175781 C-175.66231307 109.55280705 -176.49601286 109.5538563 -177.35497628 109.55493733 C-190.83472896 109.57231844 -204.31441304 109.60384342 -217.7941251 109.64064243 C-231.63684033 109.67811582 -245.47951976 109.7002806 -259.32228363 109.70838523 C-267.85648793 109.71385977 -276.39049832 109.73111856 -284.92464291 109.76369712 C-290.78554066 109.78492411 -296.6463389 109.79121289 -302.50727226 109.78603676 C-305.88330858 109.78348756 -309.25873656 109.78947597 -312.634758 109.80885315 C-345.75702533 109.98957499 -345.75702533 109.98957499 -359.96875 98.33203125 C-358.12731838 94.17339141 -355.48282339 92.20066259 -351.96875 89.33203125 C-350.1560995 87.16982508 -350.1560995 87.16982508 -348.96875 85.33203125 C-345.48531912 86.58993684 -342.89474768 88.08876636 -339.96875 90.33203125 C-336.93614208 91.34290056 -334.89934018 91.46178892 -331.72698689 91.47069645 C-330.08779804 91.47890812 -330.08779804 91.47890812 -328.41549426 91.48728567 C-327.21025692 91.48826378 -326.00501958 91.48924189 -324.76325989 91.49024963 C-323.48662828 91.49518761 -322.20999667 91.50012559 -320.89467925 91.5052132 C-317.3441695 91.51881315 -313.79366934 91.52621803 -310.24314034 91.53263986 C-306.41696999 91.54063566 -302.59081966 91.55433625 -298.7646637 91.56735229 C-292.13325946 91.5891267 -285.50185321 91.60726766 -278.8704319 91.62295723 C-269.28245021 91.64564708 -259.69449068 91.67379113 -250.10652777 91.70327651 C-234.55157841 91.75096327 -218.99662001 91.79422452 -203.44165039 91.8347168 C-188.32933854 91.87406621 -173.21703473 91.9154911 -158.10473633 91.9597168 C-157.17358188 91.96244107 -156.24242743 91.96516534 -155.28305618 91.96797217 C-150.61183775 91.98165155 -145.94061944 91.99537185 -141.26940119 92.00911248 C-102.50253419 92.12309429 -63.73564993 92.22989988 -24.96875 92.33203125 C-24.96875 91.67203125 -24.96875 91.01203125 -24.96875 90.33203125 C-24.16050781 89.99171875 -23.35226562 89.65140625 -22.51953125 89.30078125 C-15.54269513 86.1363779 -10.92134499 83.56721896 -7.96875 76.33203125 C-7.62706787 75.51726318 -7.28538574 74.70249512 -6.93334961 73.86303711 C-5.633175 69.10362801 -5.66337749 64.62325767 -5.66796875 59.7109375 C-5.66368362 58.69281479 -5.6593985 57.67469208 -5.65498352 56.62571716 C-5.64925535 54.47826886 -5.64872878 52.33080115 -5.65307617 50.18334961 C-5.65623603 46.90900388 -5.63275777 43.6355623 -5.60742188 40.36132812 C-5.60514863 38.26953238 -5.6044455 36.17773423 -5.60546875 34.0859375 C-5.59165413 32.62626305 -5.59165413 32.62626305 -5.57756042 31.13710022 C-5.62571872 24.01570764 -6.72153001 18.36273448 -11.65625 12.89453125 C-12.419375 12.04890625 -13.1825 11.20328125 -13.96875 10.33203125 C-12.60856009 7.2123917 -11.13614866 5.32368303 -8.53125 3.14453125 C-7.93441406 2.63535156 -7.33757812 2.12617188 -6.72265625 1.6015625 C-4.37835476 -0.09531497 -2.82823604 -0.95958009 0 0 Z " fill="#529E8A" transform="translate(801.96875,189.66796875)"/>
<path d="M0 0 C82.17 0 164.34 0 249 0 C249 5.94 249 11.88 249 18 C167.16 18 85.32 18 1 18 C1 41.76 1 65.52 1 90 C0.67 90 0.34 90 0 90 C0 60.3 0 30.6 0 0 Z " fill="#BDD9CE" transform="translate(497,299)"/>
<path d="M0 0 C2.40965694 3.61448541 2.28017692 6.22220358 2.25447559 10.39632607 C2.25768207 11.15952774 2.26088855 11.92272941 2.26419219 12.7090584 C2.27254762 15.28744729 2.26654859 17.86560721 2.26069641 20.44400024 C2.26371463 22.30300976 2.26760245 24.16201804 2.27228898 26.02102411 C2.28262143 31.14635977 2.2803738 36.2716259 2.27610838 41.39696741 C2.27365041 46.91877158 2.28264409 52.4405586 2.29014587 57.96235657 C2.30292404 68.79020096 2.30468243 79.61802059 2.30234561 90.44587125 C2.3005646 99.25095896 2.30230745 108.05603914 2.30657005 116.86112595 C2.30746284 118.73901177 2.30746284 118.73901177 2.30837366 120.65483468 C2.3095854 123.19805365 2.31079953 125.74127262 2.31201603 128.28449158 C2.31980959 145.37538952 2.32371822 162.46628495 2.31969929 179.55718422 C2.31954291 180.22599315 2.31938654 180.89480209 2.31922542 181.58387796 C2.31841963 184.97368695 2.31757387 188.36349594 2.31671212 191.75330491 C2.31654103 192.42652921 2.31636994 193.0997535 2.31619367 193.79337853 C2.31584701 195.15480719 2.31549848 196.51623585 2.31514808 197.8776645 C2.30979837 219.03174077 2.31769784 240.18577528 2.33618164 261.33984375 C2.35692706 285.110092 2.36758778 308.880318 2.36360615 332.6505779 C2.36169533 345.23391081 2.36416947 357.81720571 2.37832069 370.40053177 C2.39025533 381.1216852 2.39161658 391.84277729 2.37953053 402.5639316 C2.37365448 408.03026763 2.3725068 413.49649159 2.38453293 418.96282005 C2.3954356 423.97707392 2.39223645 428.99112275 2.37827124 434.0053672 C2.37563617 435.80974024 2.37795301 437.61412957 2.38600711 439.41848655 C2.44690636 454.0922809 0.88526343 468.11221899 -3.5 482.1875 C-3.79970703 483.21327148 -3.79970703 483.21327148 -4.10546875 484.25976562 C-5.35727658 488.40986739 -6.95655346 492.18041825 -9 496 C-10 494 -10 494 -8.85546875 490.25390625 C-8.30416088 488.68844753 -7.74787421 487.12473626 -7.1875 485.5625 C-4.13652633 476.74702192 -1.75857056 468.41574805 -2 459 C-1.67 458.34 -1.34 457.68 -1 457 C-0.89849945 454.52976098 -0.85786374 452.08745203 -0.8613348 449.61676598 C-0.85849258 448.84287151 -0.85565036 448.06897705 -0.85272202 447.27163124 C-0.84433042 444.65107821 -0.84310333 442.03056913 -0.84178162 439.41000366 C-0.8372193 437.52324271 -0.83221977 435.63648277 -0.82681805 433.74972403 C-0.81318989 428.54372572 -0.8058051 423.33773397 -0.79939139 418.13172245 C-0.79140792 412.52569874 -0.77770312 406.91968878 -0.76467896 401.31367493 C-0.74288698 391.59378869 -0.72475248 381.87390109 -0.70907402 372.15400314 C-0.68640011 358.10051172 -0.65825389 344.04703549 -0.62875474 329.99355693 C-0.58104837 307.19492975 -0.53778393 284.39629716 -0.49731445 261.59765625 C-0.45798223 239.4456331 -0.416564 217.29361546 -0.37231445 195.14160156 C-0.37095192 194.45908106 -0.36958939 193.77656056 -0.36818558 193.07335762 C-0.3545005 186.21936302 -0.34077293 179.3653685 -0.32701423 172.51137405 C-0.21158523 115.00759431 -0.10332948 57.50380269 0 0 Z " fill="#338A73" transform="translate(928,516)"/>
<path d="M0 0 C10.98260514 0.96459542 22.0119675 0.71427229 33.02783203 0.70361328 C35.497223 0.70428837 37.9666139 0.7052601 40.43600464 0.70651245 C45.59845618 0.70798143 50.76089034 0.70586176 55.92333984 0.70117188 C62.48906411 0.69549315 69.05474731 0.69874694 75.62047005 0.70474434 C80.71847839 0.70838703 85.81647728 0.70719416 90.91448593 0.70461655 C93.33260986 0.70395656 95.7507347 0.70474265 98.16885757 0.7070961 C109.99360687 0.71607673 121.78159977 0.71744886 133.57962227 -0.16811943 C138.45188046 -0.50237174 142.87262515 -0.1443333 147.70751953 0.57080078 C149.42470248 0.69928395 151.14360973 0.80798915 152.86376953 0.88720703 C154.17861328 0.95004883 154.17861328 0.95004883 155.52001953 1.01416016 C156.40689453 1.05347656 157.29376953 1.09279297 158.20751953 1.13330078 C159.12533203 1.17648437 160.04314453 1.21966797 160.98876953 1.26416016 C163.22824014 1.36913534 165.46780046 1.47129326 167.70751953 1.57080078 C168.03751953 0.91080078 168.36751953 0.25080078 168.70751953 -0.42919922 C168.70751953 0.23080078 168.70751953 0.89080078 168.70751953 1.57080078 C169.32102768 1.49933838 169.93453583 1.42787598 170.56663513 1.35424805 C180.18266698 0.38707517 189.76395287 0.4554289 199.41887093 0.49563599 C202.55232038 0.50854653 205.68572687 0.51495216 208.81919861 0.51977539 C215.46949168 0.53113133 222.11974895 0.55037206 228.77001953 0.57080078 C236.48723042 0.5944933 244.20442059 0.61485359 251.92165947 0.6267395 C254.99191459 0.63316832 258.0621052 0.64567283 261.13233948 0.65844727 C273.47217074 0.71362273 273.47217074 0.71362273 285.76913452 -0.22447205 C288.32908918 -0.49484779 290.72027472 -0.30701117 293.27001953 0.00830078 C315.2446763 1.99194506 337.68477985 0.3433843 359.70751953 -0.42919922 C359.70751953 0.56080078 359.70751953 1.55080078 359.70751953 2.57080078 C313.31080862 2.5936795 266.9140983 2.6113053 220.51738285 2.62186611 C215.04235028 2.62311685 209.56731771 2.62441117 204.09228516 2.62573242 C202.45728436 2.62612589 202.45728436 2.62612589 200.78925325 2.6265273 C183.1299879 2.63088102 165.47072581 2.63876693 147.81146239 2.64795358 C129.69733484 2.6572984 111.583209 2.66285815 93.46907914 2.66488928 C82.28777623 2.66626277 71.1064825 2.67060406 59.92518242 2.67871725 C52.26230525 2.68399491 44.59943285 2.68560274 36.936554 2.68430216 C32.51262228 2.68366039 28.08870663 2.68465826 23.66477776 2.69000626 C19.61572992 2.69486541 15.56670898 2.69512281 11.51765992 2.69169968 C10.05188265 2.69127647 8.58610371 2.69255097 7.12032972 2.69568396 C5.12893935 2.69969335 3.13753879 2.69693806 1.14614677 2.69384861 C0.03964173 2.69422833 -1.06686331 2.69460805 -2.20689881 2.69499928 C-5.31193209 2.57001783 -8.24200485 2.1489446 -11.29248047 1.57080078 C-11.29248047 1.24080078 -11.29248047 0.91080078 -11.29248047 0.57080078 C-7.33367985 -0.21054919 -4.00080517 -0.45454724 0 0 Z " fill="#398773" transform="translate(446.29248046875,1096.42919921875)"/>
<path d="M0 0 C7.92 0 15.84 0 24 0 C24 28.38 24 56.76 24 86 C23.67 86 23.34 86 23 86 C23 63.56 23 41.12 23 18 C15.74 18 8.48 18 1 18 C1 41.43 1 64.86 1 89 C0.67 89 0.34 89 0 89 C0 59.63 0 30.26 0 0 Z " fill="#267E65" transform="translate(747,299)"/>
<path d="M0 0 C8.25 0 16.5 0 25 0 C25 5.94 25 11.88 25 18 C16.75 18 8.5 18 0 18 C0 12.06 0 6.12 0 0 Z " fill="#2B8068" transform="translate(472,299)"/>
<path d="M0 0 C1.59290359 -0.0032856 1.59290359 -0.0032856 3.21798706 -0.00663757 C6.72027085 -0.0089424 10.22170516 0.01732461 13.72387695 0.04418945 C16.19830561 0.04912611 18.67273805 0.05241666 21.14717102 0.05415344 C27.67737029 0.06374585 34.20722353 0.09814488 40.73730469 0.13702393 C45.95529777 0.16386545 51.1732436 0.17275302 56.39129448 0.18070793 C84.9476082 0.22560626 113.48382926 0.49691212 142.0246582 1.4699707 C142.0246582 1.7999707 142.0246582 2.1299707 142.0246582 2.4699707 C141.26504823 2.47235906 140.50543825 2.47474741 139.72280979 2.47720814 C121.21825004 2.53640923 102.71382308 2.61199199 84.20940495 2.70568562 C75.26070905 2.75060285 66.31205258 2.79002688 57.36328125 2.81640625 C49.56123429 2.83941934 41.75931255 2.87285428 33.95736498 2.91867226 C29.82836499 2.94255992 25.69948867 2.96131784 21.57042122 2.96758461 C17.67895042 2.97365572 13.78779588 2.99372814 9.89644241 3.02424622 C8.47313195 3.03299411 7.0497801 3.03675579 5.62644386 3.03497887 C-3.0646957 3.02755865 -11.20092223 3.07022921 -18.4987793 8.2668457 C-25.93999168 16.11622585 -27.46876521 22.83186248 -27.9753418 33.4699707 C-28.3053418 33.4699707 -28.6353418 33.4699707 -28.9753418 33.4699707 C-29.3053418 30.4999707 -29.6353418 27.5299707 -29.9753418 24.4699707 C-30.3053418 24.4699707 -30.6353418 24.4699707 -30.9753418 24.4699707 C-30.56309831 16.77475893 -28.19416637 11.68879528 -22.7253418 6.2199707 C-15.17530354 1.41540091 -8.91532208 -0.11614806 0 0 Z " fill="#96CCBF" transform="translate(477.975341796875,193.530029296875)"/>
<path d="M0 0 C0.33 0 0.66 0 1 0 C1.11473655 32.76497185 1.20269601 65.52989108 1.25532665 98.29501836 C1.26157931 102.17348587 1.268051 106.05195299 1.2746582 109.93041992 C1.27662553 111.0884969 1.27662553 111.0884969 1.2786326 112.26996938 C1.3003201 124.72977394 1.33970438 137.18946178 1.38576398 149.64919736 C1.43271488 162.45798204 1.46033451 175.26670608 1.47044247 188.07557327 C1.47726329 195.96338238 1.4987125 203.85086144 1.53958233 211.73856882 C1.56942892 217.81256547 1.57222769 223.88628524 1.56553841 229.96036339 C1.56690173 232.43328874 1.57668186 234.90622786 1.59602737 237.37907791 C1.73218497 255.69895803 0.46881767 275.28425509 -8 292 C-8.66 292.33 -9.32 292.66 -10 293 C-9.74476563 292.195625 -9.74476563 292.195625 -9.484375 291.375 C-6.11238094 280.46982772 -2.78107214 269.48770739 -2.17578125 258.0390625 C-2 256 -2 256 -1 254 C-0.90246763 252.59832612 -0.86617982 251.19214693 -0.8613348 249.78709221 C-0.85312313 248.45394535 -0.85312313 248.45394535 -0.84474558 247.09386623 C-0.84376747 246.11139104 -0.84278936 245.12891586 -0.84178162 244.1166687 C-0.83684364 243.07773755 -0.83190566 242.0388064 -0.82681805 240.96839249 C-0.81138036 237.46444434 -0.8030655 233.96051459 -0.79467773 230.45654297 C-0.78510413 227.95381507 -0.77509437 225.4510888 -0.76467896 222.94836426 C-0.74319327 217.54850687 -0.72475991 212.14865259 -0.70907402 206.74877548 C-0.68638945 198.94140187 -0.65824468 191.13405551 -0.62875474 183.32670499 C-0.58106148 170.66068644 -0.537802 157.99465676 -0.49731445 145.32861328 C-0.45796834 133.02261488 -0.41654425 120.71662639 -0.37231445 108.41064453 C-0.36959018 107.6524731 -0.36686591 106.89430167 -0.36405908 106.11315535 C-0.35037975 102.3097424 -0.33665945 98.50632959 -0.32291877 94.70291686 C-0.20892675 63.13529831 -0.10219704 31.56765904 0 0 Z " fill="#258368" transform="translate(928,719)"/>
<path d="M0 0 C0.33 0 0.66 0 1 0 C1.06058594 0.80824219 1.12117188 1.61648438 1.18359375 2.44921875 C1.26738281 3.51785156 1.35117187 4.58648438 1.4375 5.6875 C1.55931641 7.27111328 1.55931641 7.27111328 1.68359375 8.88671875 C1.96529587 11.6585285 2.41274797 14.28009586 3 17 C3.14179688 17.79019531 3.28359375 18.58039062 3.4296875 19.39453125 C4.44344151 24.89903766 5.93815914 29.80057523 8 35 C8.35194693 36.3285414 8.69031399 37.66097668 9 39 C7.515 39.495 7.515 39.495 6 40 C-1.42569672 14.21510695 -1.42569672 14.21510695 -1 1 C-0.67 0.67 -0.34 0.34 0 0 Z " fill="#3F927D" transform="translate(315,965)"/>
<path d="M0 0 C0.66 0.33 1.32 0.66 2 1 C1.27683594 1.77923828 1.27683594 1.77923828 0.5390625 2.57421875 C-0.09257812 3.27160156 -0.72421875 3.96898437 -1.375 4.6875 C-2.31472656 5.71423828 -2.31472656 5.71423828 -3.2734375 6.76171875 C-6.57728367 11.04475915 -7.27389368 14.98738752 -7.625 20.3125 C-7.69976562 21.38113281 -7.77453125 22.44976562 -7.8515625 23.55078125 C-7.90054687 24.35902344 -7.94953125 25.16726562 -8 26 C-8.33 26 -8.66 26 -9 26 C-9.33 23.03 -9.66 20.06 -10 17 C-10.33 17 -10.66 17 -11 17 C-10.59930579 11.18993391 -9.92755506 7.56445589 -6 3 C-2.875 1.0625 -2.875 1.0625 0 0 Z " fill="#9FD0C3" transform="translate(458,201)"/>
<path d="M0 0 C1.4540625 0.0309375 1.4540625 0.0309375 2.9375 0.0625 C2.9375 4.48251501 2.08857686 6.0481155 -0.0625 9.8125 C-0.619375 10.79734375 -1.17625 11.7821875 -1.75 12.796875 C-2.183125 13.54453125 -2.61625 14.2921875 -3.0625 15.0625 C-5.06051607 11.77840462 -5.21416527 9.66102272 -4.75 5.875 C-4.65074219 4.99457031 -4.55148437 4.11414063 -4.44921875 3.20703125 C-3.84040762 -0.16910323 -3.56311959 0.07271673 0 0 Z " fill="#EEF1F0" transform="translate(333.0625,449.9375)"/>
<path d="M0 0 C0.33 0 0.66 0 1 0 C0.96883759 8.39826951 -0.56900992 15.90289356 -2.875 23.9375 C-3.13168457 24.83686279 -3.38836914 25.73622559 -3.65283203 26.6628418 C-5.05483334 31.38126793 -6.62591549 35.68542126 -9 40 C-10 38 -10 38 -8.85546875 34.25390625 C-8.30416088 32.68844753 -7.74787421 31.12473626 -7.1875 29.5625 C-4.44642668 21.64244747 -2 13.96109583 -2 5.5 C-2 3 -2 3 0 0 Z " fill="#358971" transform="translate(928,972)"/>
<path d="M0 0 C-9.44535768 4.2874089 -19.5509852 7.31663681 -30 7 C-30 6.34 -30 5.68 -30 5 C-29.16082031 4.83564453 -29.16082031 4.83564453 -28.3046875 4.66796875 C-1.74974773 -0.58324924 -1.74974773 -0.58324924 0 0 Z " fill="#418D7A" transform="translate(838,1091)"/>
<path d="M0 0 C2.7681582 2.39068208 3.75941672 4.58839597 5 8 C6.46497842 11.50320928 7.96350905 14.92836962 9.6875 18.3125 C11 21 11 21 11 23 C11.66 23 12.32 23 13 23 C13.33 24.65 13.66 26.3 14 28 C9.98664587 24.55355464 8.09433671 20.62511043 5.875 15.9375 C5.18662119 14.50828229 4.49657792 13.07986479 3.8046875 11.65234375 C3.50546387 11.02320068 3.20624023 10.39405762 2.89794922 9.74584961 C1.90664921 7.73786709 1.90664921 7.73786709 0 5 C-0.125 2.3125 -0.125 2.3125 0 0 Z " fill="#3E907B" transform="translate(324,1008)"/>
<path d="M0 0 C0 0.66 0 1.32 0 2 C-1.26418246 2.69965443 -2.53665402 3.38434763 -3.8125 4.0625 C-4.52019531 4.44535156 -5.22789062 4.82820312 -5.95703125 5.22265625 C-8 6 -8 6 -11 5 C-7.56138316 1.21752148 -5.17193751 0 0 0 Z M-13 6 C-12.34 6.33 -11.68 6.66 -11 7 C-11.99 7 -12.98 7 -14 7 C-13.67 6.67 -13.34 6.34 -13 6 Z " fill="#98CFC1" transform="translate(466,196)"/>
<path d="M0 0 C0.66 0.33 1.32 0.66 2 1 C-0.31 3.64 -2.62 6.28 -5 9 C-5.66 8.01 -6.32 7.02 -7 6 C-6 3 -6 3 -3.0625 1.25 C-2.051875 0.8375 -1.04125 0.425 0 0 Z " fill="#B0DCD0" transform="translate(458,201)"/>
<path d="M0 0 C4.95 0.99 9.9 1.98 15 3 C15 3.33 15 3.66 15 4 C10.66666667 4 6.33333333 4 2 4 C1.34 2.68 0.68 1.36 0 0 Z " fill="#D5E4E0" transform="translate(456,296)"/>
<path d="M0 0 C1.94566951 3.47547073 2.07637127 5.12506344 1 9 C0.34 9 -0.32 9 -1 9 C-1.33 10.98 -1.66 12.96 -2 15 C-3.31534494 11.34142468 -2.65468309 8.91973519 -1.5625 5.25 C-1.27503906 4.26515625 -0.98757813 3.2803125 -0.69140625 2.265625 C-0.46324219 1.51796875 -0.23507812 0.7703125 0 0 Z " fill="#C9E0DA" transform="translate(927,985)"/>
<path d="M0 0 C0.33 0 0.66 0 1 0 C1.33 2.97 1.66 5.94 2 9 C1.01 9.495 1.01 9.495 0 10 C-1.49106457 7.01787087 -1.11941467 4.28390342 -1 1 C-0.67 0.67 -0.34 0.34 0 0 Z " fill="#3A907B" transform="translate(315,965)"/>
<path d="M0 0 C-1.45449401 1.0055761 -2.91372443 2.00430435 -4.375 3 C-5.59316406 3.8353125 -5.59316406 3.8353125 -6.8359375 4.6875 C-9 6 -9 6 -11 6 C-9.89210592 2.67631776 -9.51563783 2.38436907 -6.625 0.75 C-6.01914062 0.39421875 -5.41328125 0.0384375 -4.7890625 -0.328125 C-3 -1 -3 -1 0 0 Z " fill="#EAF6F2" transform="translate(449,567)"/>
<path d="M0 0 C0.66 0.33 1.32 0.66 2 1 C1.0479279 2.00596297 0.08812654 3.00461563 -0.875 4 C-1.40867187 4.556875 -1.94234375 5.11375 -2.4921875 5.6875 C-4 7 -4 7 -6 7 C-6 6.34 -6 5.68 -6 5 C-5.34 5 -4.68 5 -4 5 C-3.67 4.01 -3.34 3.02 -3 2 C-2.01 1.34 -1.02 0.68 0 0 Z " fill="#408F79" transform="translate(883,1061)"/>
<path d="M0 0 C0.66 0.33 1.32 0.66 2 1 C-0.31 3.31 -2.62 5.62 -5 8 C-5 5 -5 5 -2.5 2.3125 C-1.675 1.549375 -0.85 0.78625 0 0 Z " fill="#A5D5CA" transform="translate(469,209)"/>
</svg>
